 <svg  version="1.0" xmlns="http://www.w3.org/2000/svg"  width="300.000000pt" height="300.000000pt" viewBox="0 0 300.000000 300.000000"  preserveAspectRatio="xMidYMid meet">  <g transform="translate(0.000000,300.000000) scale(0.100000,-0.100000)" fill="#034440" stroke="none"> <path d="M1493 2588 c-6 -7 -23 -38 -38 -68 -47 -94 -110 -180 -215 -298 -127 -144 -168 -198 -219 -292 -50 -94 -71 -173 -72 -275 -1 -167 49 -291 161 -400 174 -168 441 -203 662 -88 164 86 251 213 278 410 9 70 8 94 -8 175 -31 150 -103 273 -275 465 -50 56 -155 191 -184 238 -7 11 -28 49 -46 83 -26 50 -36 61 -44 50z m117 -254 c21 -27 79 -97 130 -155 193 -217 260 -356 260 -534 0 -139 -47 -254 -139 -345 -53 -51 -156 -118 -167 -107 -2 2 6 23 18 47 24 44 54 73 107 102 56 31 30 73 -29 48 -37 -16 -90 -74 -90 -100 0 -11 -5 -20 -11 -20 -15 0 -3 65 17 96 8 12 51 55 95 94 44 40 86 84 93 99 18 34 22 83 12 153 -7 47 -5 63 8 83 9 13 16 29 16 35 0 21 -39 9 -64 -21 -22 -26 -26 -40 -26 -99 0 -94 -19 -133 -105 -216 -77 -73 -95 -109 -95 -186 0 -21 -4 -38 -10 -38 -15 0 -12 126 4 165 16 37 83 132 109 154 30 24 40 87 26 157 -11 54 -10 68 5 107 24 62 23 132 -1 165 -32 43 -42 38 -42 -22 0 -31 -7 -68 -16 -86 -13 -26 -15 -49 -9 -134 7 -114 6 -119 -58 -200 -77 -97 -96 -159 -78 -257 6 -34 9 -63 6 -66 -11 -11 -39 64 -43 118 -7 78 9 135 65 232 42 72 47 87 47 141 0 43 -8 77 -25 114 -27 58 -28 44 22 220 11 39 11 47 -9 80 -22 39 -69 80 -79 69 -3 -3 1 -16 10 -29 23 -32 20 -50 -16 -131 -44 -99 -44 -156 0 -221 44 -68 42 -100 -12 -185 -98 -153 -110 -200 -76 -300 11 -35 41 -93 65 -130 24 -36 40 -67 35 -69 -14 -5 -100 44 -138 79 -41 37 -52 72 -52 162 0 56 6 84 37 155 20 48 40 92 45 99 5 6 9 43 9 82 0 80 -18 129 -105 286 -31 55 -61 115 -67 134 -11 32 -10 35 39 85 48 50 126 158 139 193 4 10 13 28 21 41 14 22 15 21 49 -35 19 -32 52 -81 73 -109z m-332 -216 c6 -28 15 -54 19 -57 5 -3 16 -22 25 -41 23 -46 51 -94 61 -101 4 -3 9 -15 12 -28 2 -12 10 -34 18 -50 7 -15 15 -54 16 -88 2 -50 -4 -73 -30 -129 -64 -141 -75 -206 -46 -279 l17 -40 -41 45 c-50 57 -106 170 -120 246 -13 67 -6 264 10 306 7 19 7 29 0 34 -15 9 -17 5 -35 -66 -23 -89 -22 -255 1 -345 36 -145 111 -252 230 -331 63 -42 58 -53 -13 -34 -163 45 -288 142 -353 277 -37 75 -41 93 -46 182 -7 115 5 177 52 271 48 94 183 280 205 280 3 0 11 -23 18 -52z m292 -153 c-14 -36 -22 -28 -14 14 4 19 10 29 16 23 5 -5 4 -20 -2 -37z m-60 -451 c-6 -14 -10 -39 -10 -57 0 -22 -3 -28 -11 -20 -12 12 7 103 22 103 5 0 4 -12 -1 -26z m158 -302 c-1 -51 -9 -62 -50 -62 -23 0 -27 5 -33 40 -8 50 3 66 50 68 l34 1 -1 -47z"/> <path d="M357 943 c-4 -3 0 -11 7 -17 21 -16 1 -195 -23 -213 -14 -10 -10 -12 27 -13 44 0 51 5 29 24 -14 12 -12 156 3 156 4 0 22 -40 40 -90 18 -49 36 -90 40 -90 3 0 21 39 39 88 19 48 37 91 42 97 5 5 9 -26 9 -74 0 -68 -3 -86 -17 -97 -16 -12 -10 -13 40 -14 31 0 57 4 57 10 0 6 -6 10 -14 10 -19 0 -33 185 -15 206 16 19 10 23 -29 17 -22 -4 -37 -13 -42 -27 -5 -11 -20 -48 -34 -80 l-24 -59 -16 37 c-9 21 -21 56 -28 78 -6 22 -17 41 -22 43 -35 10 -64 14 -69 8z"/> <path d="M769 923 c-44 -120 -75 -191 -87 -205 -14 -17 -12 -18 26 -18 23 0 42 5 42 10 0 6 -7 10 -15 10 -18 0 -19 14 -5 41 8 14 21 19 55 19 40 0 45 -3 51 -27 5 -19 2 -30 -11 -40 -17 -11 -12 -13 38 -13 31 0 57 5 57 10 0 6 -6 10 -13 10 -7 0 -22 24 -32 53 -31 87 -75 177 -85 177 -6 0 -15 -12 -21 -27z m19 -121 c-37 -4 -41 0 -29 29 5 13 12 33 16 44 6 17 10 12 25 -25 l18 -45 -30 -3z"/> <path d="M1000 939 c-39 -14 -70 -68 -70 -120 0 -60 28 -104 77 -119 21 -7 51 -23 66 -36 37 -31 72 -39 103 -25 34 15 31 34 -4 26 -20 -4 -36 0 -51 13 l-23 18 35 35 c104 104 4 259 -133 208z m73 -21 c37 -19 46 -40 47 -102 0 -42 -5 -65 -17 -78 -21 -23 -75 -23 -96 0 -36 39 -33 136 4 173 22 22 32 23 62 7z"/> <path d="M1220 942 c-15 -5 -12 -22 3 -19 9 1 13 -24 15 -95 3 -91 4 -98 29 -118 43 -34 120 -22 144 22 7 13 14 59 15 102 3 60 7 82 19 89 25 13 9 24 -32 21 -50 -3 -49 -2 -29 -17 16 -12 18 -26 15 -101 -4 -93 -11 -106 -60 -106 -39 0 -50 21 -56 108 -5 65 -3 81 11 95 10 9 14 18 9 18 -22 3 -74 4 -83 1z"/> <path d="M1496 941 c-4 -5 2 -14 11 -20 15 -8 18 -24 18 -100 0 -78 -3 -93 -20 -105 -18 -14 -11 -15 76 -16 l97 0 4 30 c6 39 -6 47 -20 15 -10 -21 -19 -25 -52 -25 l-40 0 0 50 c0 53 14 65 44 35 22 -23 26 -19 26 28 -1 35 -3 39 -13 26 -7 -9 -22 -19 -35 -23 -21 -7 -22 -4 -22 38 0 46 0 46 35 46 24 0 39 -6 47 -20 18 -28 28 -25 28 10 l0 30 -74 0 c-41 0 -81 3 -89 6 -8 3 -18 1 -21 -5z"/> <path d="M1899 939 c-8 -5 -5 -10 8 -18 17 -9 21 -21 22 -76 1 -36 -2 -65 -6 -65 -5 0 -36 36 -71 80 -55 69 -68 80 -95 80 -24 0 -28 -3 -19 -12 8 -8 12 -46 12 -106 0 -79 -3 -97 -17 -108 -16 -12 -11 -13 35 -14 28 0 52 5 52 10 0 6 -9 10 -20 10 -18 0 -20 7 -20 58 0 31 -3 68 -7 81 -10 39 10 22 93 -79 l79 -95 3 115 c1 63 7 119 12 124 6 6 10 13 10 16 0 9 -57 8 -71 -1z"/> <path d="M2530 941 c-43 -6 -44 -7 -22 -19 20 -12 22 -20 22 -101 0 -81 -2 -90 -22 -104 -22 -15 -17 -16 73 -16 l97 -1 4 30 c6 40 -6 46 -26 15 -12 -19 -25 -25 -51 -25 l-35 0 0 100 c0 80 3 102 15 106 14 6 11 26 -3 22 -4 0 -27 -4 -52 -7z"/> <path d="M2010 910 c0 -35 10 -38 28 -10 7 11 23 20 37 20 25 0 25 -1 25 -90 0 -79 -3 -92 -22 -110 l-22 -20 57 0 c31 0 57 5 57 10 0 6 -7 10 -15 10 -12 0 -15 18 -15 100 0 100 0 100 25 100 14 0 30 -9 37 -20 18 -28 28 -25 28 10 l0 30 -110 0 -110 0 0 -30z"/> <path d="M2286 834 c-21 -58 -45 -108 -52 -111 -28 -10 -13 -23 26 -23 22 0 40 5 40 10 0 6 -7 10 -15 10 -18 0 -18 1 -5 34 8 23 15 26 54 26 39 0 45 -3 50 -26 5 -19 2 -30 -11 -40 -16 -12 -11 -13 40 -14 31 0 57 4 57 10 0 6 -6 10 -13 10 -7 0 -32 49 -56 110 -31 79 -48 110 -60 110 -12 0 -27 -29 -55 -106z m62 17 c16 -52 16 -51 -19 -51 -26 0 -30 3 -24 18 3 9 9 29 12 45 8 38 18 34 31 -12z"/> </g> </svg> 